<?xml version="1.0" standalone="no"?>
<!DOCTYPE svg PUBLIC "-//W3C//DTD SVG 20010904//EN"
 "http://www.w3.org/TR/2001/REC-SVG-20010904/DTD/svg10.dtd">
<svg version="1.0" xmlns="http://www.w3.org/2000/svg"
 width="239.000000pt" height="239.000000pt" viewBox="0 0 239.000000 239.000000"
 preserveAspectRatio="xMidYMid meet">
<metadata>
Created by potrace 1.14, written by Peter Selinger 2001-2017
</metadata>
<g transform="translate(0.000000,239.000000) scale(0.100000,-0.100000)"
fill="#000000" stroke="none">
<path d="M1374 1992 l-97 -102 -89 0 c-67 0 -89 -3 -86 -12 3 -8 31 -15 71
-18 l67 -5 -162 -162 -162 -163 -88 0 -88 0 0 -35 0 -34 -112 -3 -113 -3 -3
-52 -3 -53 -160 0 c-129 0 -159 -3 -159 -14 0 -8 7 -17 16 -20 9 -3 121 -6
250 -6 129 0 234 -3 234 -7 0 -5 -14 -23 -30 -40 l-30 -33 -105 0 -105 0 0
-45 0 -45 -210 0 -210 0 0 -40 0 -40 358 0 c290 -1 360 -3 376 -15 29 -22 9
-35 -54 -35 -55 0 -60 -2 -66 -24 -3 -14 -3 -34 1 -45 6 -18 14 -21 70 -21 85
0 95 -5 95 -46 l0 -34 78 0 79 0 111 -112 111 -113 96 -3 95 -4 0 -34 c0 -32
-2 -34 -32 -34 -71 0 -67 -12 38 -124 54 -58 104 -106 110 -106 6 0 171 161
367 359 l356 359 -15 48 c-8 27 -15 53 -17 58 -1 4 -17 -15 -34 -43 -33 -53
-71 -73 -102 -54 -13 8 -32 36 -47 71 -1 2 -14 -8 -29 -23 -16 -14 -45 -28
-67 -31 -21 -4 -38 -12 -38 -19 0 -7 -7 -16 -16 -19 -9 -3 -204 -6 -434 -6
-374 0 -420 2 -435 16 -10 11 -13 20 -7 26 6 6 176 8 439 6 422 -3 429 -3 405
16 -20 16 -27 17 -47 6 -20 -11 -27 -11 -40 0 -21 17 -19 33 9 59 19 18 24 35
29 109 12 158 58 272 111 272 26 0 66 -42 77 -80 15 -51 7 -90 -41 -185 -46
-91 -44 -85 -27 -85 6 0 21 17 32 37 42 77 98 91 152 37 l24 -24 26 20 c31 25
85 26 120 3 14 -9 36 -39 48 -65 l22 -47 34 35 33 34 -194 198 c-108 108 -306
309 -442 447 l-247 249 -97 -102z m384 -413 l3 -36 -248 -6 c-400 -11 -456
-10 -449 9 3 9 6 29 6 45 l0 29 343 -2 342 -3 3 -36z m-370 -311 l3 -38 -183
0 -183 0 0 40 0 40 180 -2 180 -3 3 -37z m-27 -436 c127 3 139 1 139 -14 0
-17 -16 -18 -195 -18 -107 0 -195 2 -195 4 0 2 -3 11 -6 20 -4 11 4 15 38 18
23 2 51 -1 61 -5 10 -5 81 -7 158 -5z"/>
<path d="M464 1746 c-3 -8 -4 -25 -2 -38 l3 -23 255 0 255 0 0 35 0 35 -253 3
c-213 2 -253 0 -258 -12z"/>
<path d="M264 776 c-3 -8 -4 -23 -2 -33 3 -17 24 -18 321 -21 l317 -2 0 35 0
35 -315 0 c-266 0 -317 -2 -321 -14z"/>
<path d="M846 524 c-9 -8 -16 -22 -16 -29 0 -36 29 -45 145 -45 62 0 120 3
129 6 10 4 16 18 16 39 0 21 -6 35 -16 39 -9 3 -67 6 -129 6 -90 0 -117 -3
-129 -16z"/>
</g>
</svg>
